<?xml version="1.0" standalone="no"?>
<!DOCTYPE svg PUBLIC "-//W3C//DTD SVG 20010904//EN"
 "http://www.w3.org/TR/2001/REC-SVG-20010904/DTD/svg10.dtd">
<svg version="1.0" xmlns="http://www.w3.org/2000/svg"
 width="1136.000000pt" height="1136.000000pt" viewBox="0 0 1136.000000 1136.000000"
 preserveAspectRatio="xMidYMid meet">
<metadata>
Created by potrace 1.14, written by Peter Selinger 2001-2017
</metadata>
<g transform="translate(0.000000,1136.000000) scale(0.100000,-0.100000)"
fill="#000000" stroke="none">
<path d="M5570 11353 c-39 -7 -143 -43 -167 -59 -13 -8 -23 -12 -23 -9 0 10
-112 -80 -146 -117 -26 -27 -96 -117 -215 -278 -11 -14 -32 -43 -49 -65 -16
-22 -33 -45 -37 -50 -5 -6 -24 -33 -43 -60 -19 -28 -38 -51 -42 -53 -4 -2 -8
-10 -8 -17 0 -7 -3 -15 -7 -17 -5 -1 -18 -17 -30 -34 -304 -434 -628 -932
-764 -1171 -10 -17 -29 -49 -42 -70 -13 -21 -27 -45 -30 -53 -4 -8 -16 -28
-26 -45 -11 -16 -29 -47 -40 -67 -36 -65 -46 -83 -51 -88 -3 -3 -17 -27 -31
-55 -50 -96 -64 -120 -71 -123 -5 -2 -8 -12 -8 -23 0 -10 -4 -19 -10 -19 -5 0
-10 -4 -10 -9 0 -6 -22 -51 -49 -100 -27 -50 -46 -91 -43 -91 4 0 2 -4 -4 -8
-6 -4 -24 -34 -40 -67 -16 -33 -32 -61 -36 -63 -5 -2 -8 -7 -8 -12 0 -4 -47
-104 -104 -221 -57 -118 -122 -257 -145 -309 -23 -52 -45 -102 -50 -111 -5 -9
-26 -56 -46 -105 -35 -86 -48 -116 -80 -188 -8 -19 -15 -38 -15 -43 0 -4 -6
-19 -13 -33 -11 -22 -49 -116 -53 -130 0 -3 -6 -18 -13 -35 -18 -43 -118 -326
-147 -415 -24 -73 -75 -235 -80 -255 -2 -5 -10 -37 -20 -70 -9 -33 -17 -64
-19 -70 -1 -5 -5 -17 -8 -25 -4 -8 -11 -33 -16 -55 -34 -135 -82 -334 -86
-355 -3 -14 -7 -34 -9 -45 -28 -128 -36 -169 -32 -173 3 -2 1 -12 -3 -21 -8
-15 -13 -35 -27 -129 -3 -20 -7 -48 -9 -62 -23 -143 -34 -247 -29 -280 21
-133 156 -222 284 -187 36 10 96 48 140 89 14 13 59 49 100 80 41 32 80 61 85
66 11 9 126 83 200 129 69 42 245 133 245 126 0 -3 8 1 18 9 17 15 257 113
337 138 22 7 46 17 53 23 6 5 12 7 12 4 0 -3 28 4 63 15 34 11 69 21 77 23 8
2 69 18 135 35 116 31 140 36 196 44 15 2 31 6 35 9 5 2 29 8 54 11 25 3 54 8
65 10 11 2 42 7 68 10 27 4 59 9 70 12 12 2 47 6 77 9 30 3 66 7 79 10 14 2
62 7 107 10 46 3 92 8 104 10 115 22 802 22 1053 1 30 -3 86 -8 124 -11 69 -6
87 -8 178 -20 66 -8 104 -14 135 -20 14 -2 41 -7 60 -9 33 -5 108 -18 175 -31
17 -3 38 -8 47 -11 10 -3 30 -7 45 -10 25 -4 46 -8 93 -21 8 -2 24 -6 35 -8
11 -2 36 -9 55 -15 19 -6 44 -13 55 -15 12 -3 48 -14 80 -25 69 -24 70 -24
110 -35 17 -4 35 -11 40 -15 6 -3 29 -12 52 -19 49 -14 292 -120 361 -158 26
-14 76 -41 112 -61 81 -44 274 -171 278 -183 2 -5 8 -9 14 -9 10 0 63 -41 158
-123 60 -51 59 -51 105 -68 107 -41 228 11 284 121 18 35 21 121 7 215 -5 35
-20 134 -31 203 -2 12 -6 30 -10 41 -3 10 -7 38 -10 62 -4 42 -12 84 -15 84
-1 0 -3 9 -5 20 -3 26 -11 65 -30 150 -9 39 -18 81 -21 95 -3 14 -10 43 -16
65 -5 22 -12 47 -14 55 -16 64 -45 175 -59 225 -10 33 -18 65 -19 70 -9 43
-130 411 -191 580 -55 153 -166 438 -201 513 -13 29 -24 55 -24 57 0 4 -33 79
-65 150 -8 17 -27 59 -43 95 -16 36 -39 88 -52 115 -31 69 -259 525 -302 605
-19 36 -55 101 -78 145 -24 44 -52 94 -62 110 -10 17 -22 39 -28 50 -5 11 -28
52 -50 90 -22 39 -45 81 -52 95 -7 14 -15 27 -18 30 -7 7 -29 42 -37 60 -4 8
-16 31 -28 50 -12 19 -23 38 -23 43 -1 4 -18 30 -37 57 -19 27 -35 53 -35 56
0 3 -9 19 -21 35 -11 16 -17 29 -12 29 4 0 4 4 -2 8 -5 4 -16 15 -24 25 -12
15 39 69 534 565 301 301 557 563 570 582 136 215 28 504 -214 574 -48 14
-192 16 -1265 15 -666 -1 -1222 -4 -1236 -6z"/>
<path d="M3325 4761 c-43 -12 -135 -73 -280 -183 -165 -126 -299 -273 -412
-454 -65 -102 -139 -279 -174 -414 -54 -205 -64 -293 -63 -525 0 -195 7 -253
48 -440 37 -173 148 -442 239 -580 48 -72 122 -177 140 -199 112 -130 189
-209 267 -272 19 -16 37 -32 38 -36 2 -5 10 -8 18 -8 8 0 14 -4 14 -8 0 -7 91
-73 335 -242 55 -38 108 -75 117 -82 9 -7 55 -40 103 -73 227 -157 321 -225
338 -239 9 -9 20 -16 23 -16 4 0 32 -18 63 -41 31 -22 117 -83 191 -135 74
-52 143 -101 153 -109 9 -8 19 -15 22 -15 2 0 39 -25 82 -56 43 -30 87 -62 98
-70 11 -8 61 -42 110 -77 50 -34 100 -69 111 -77 12 -8 50 -35 85 -59 35 -25
66 -48 67 -53 2 -4 8 -8 14 -8 6 0 27 -13 47 -29 107 -84 281 -189 346 -209
227 -71 421 -38 625 107 36 25 67 49 68 53 2 5 9 8 15 8 7 0 23 9 37 21 14 11
86 62 160 114 74 52 144 101 155 110 20 15 52 38 237 164 51 35 95 67 98 70 3
3 25 20 50 36 25 16 47 32 50 35 3 3 12 10 21 15 10 6 50 34 90 62 41 29 82
59 93 65 10 7 61 43 113 81 52 37 96 67 99 67 3 0 10 5 17 11 9 8 341 243 437
309 8 6 51 36 95 67 44 31 116 81 160 112 44 30 85 60 92 66 6 5 26 21 44 35
202 155 398 393 514 625 22 44 43 82 48 83 4 2 7 7 7 12 0 5 5 21 12 37 6 15
12 30 12 33 1 3 14 37 29 75 54 141 95 324 111 497 2 20 7 41 10 47 4 6 3 11
-3 11 -5 0 -7 11 -3 28 9 36 8 94 -1 110 -5 6 -4 12 1 12 5 0 8 12 6 28 -2 15
-6 61 -9 102 -3 41 -8 86 -10 100 -3 14 -7 41 -10 60 -5 39 -8 54 -25 125 -6
28 -13 57 -15 66 -11 56 -51 160 -96 254 -16 33 -29 65 -29 72 0 7 -4 13 -9
13 -5 0 -12 9 -16 20 -3 10 -26 49 -51 84 -24 36 -44 69 -44 75 0 5 -4 11 -8
13 -5 2 -37 36 -72 77 -67 78 -174 182 -235 228 -6 5 -30 24 -55 43 -72 57
-149 110 -160 110 -6 0 -10 4 -10 10 0 14 -69 43 -105 44 -42 1 -90 -29 -109
-68 -20 -42 -20 -66 0 -136 8 -30 17 -64 19 -75 2 -11 14 -58 25 -105 54 -211
10 -338 -164 -477 -8 -7 -17 -13 -19 -13 -3 0 -22 -8 -43 -17 -22 -9 -46 -18
-54 -20 -29 -7 -155 -11 -165 -5 -5 4 -21 8 -35 10 -21 3 -156 68 -170 82 -3
3 -14 10 -25 16 -51 28 -119 66 -224 128 -62 36 -115 66 -117 66 -2 0 -44 25
-95 55 -50 30 -93 55 -94 55 -2 0 -49 27 -105 60 -56 33 -105 60 -110 60 -4 0
-13 7 -20 15 -7 8 -21 15 -31 15 -11 0 -19 5 -19 10 0 6 -3 9 -7 8 -5 -1 -28
7 -53 19 -67 31 -172 71 -200 77 -14 3 -50 12 -80 20 -30 8 -66 17 -80 20 -14
3 -34 7 -45 9 -93 21 -432 29 -530 13 -22 -3 -56 -8 -76 -11 -58 -9 -223 -51
-247 -64 -12 -6 -22 -9 -22 -5 0 3 -6 2 -12 -4 -7 -6 -15 -10 -18 -9 -18 6
-262 -115 -375 -184 -16 -11 -37 -22 -45 -26 -8 -4 -48 -26 -88 -50 -40 -24
-77 -43 -82 -43 -6 0 -10 -4 -10 -8 0 -4 -12 -13 -27 -19 -16 -7 -48 -24 -73
-39 -25 -14 -97 -56 -160 -93 -63 -36 -117 -68 -120 -71 -3 -3 -23 -14 -45
-26 -22 -11 -53 -28 -70 -37 -59 -31 -107 -49 -120 -43 -8 3 -17 2 -19 -3 -3
-4 -31 -7 -63 -6 -174 4 -317 108 -374 273 -27 79 -26 161 3 267 6 22 12 45
14 50 1 6 10 39 19 75 37 139 37 166 1 213 -28 36 -83 58 -121 48z"/>
</g>
</svg>
